<!-- <?xml version="1.0" standalone="no"?><!DOCTYPE svg PUBLIC "-//W3C//DTD SVG 1.1//EN" "http://www.w3.org/Graphics/SVG/1.1/DTD/svg11.dtd"><svg t="1635068964011" class="icon" viewBox="0 0 1066 1024" version="1.1" xmlns="http://www.w3.org/2000/svg" p-id="3403" xmlns:xlink="http://www.w3.org/1999/xlink" width="208.203125" height="200"><defs><style type="text/css"></style></defs><path d="M889.094103 274.951066v484.804685c0 19.272271-15.417817 34.690088-34.690088 34.690088H212.423254c-19.272271 0-34.690088-15.417817-34.690088-34.690088V274.951066h711.360937z" fill="#6F68E6" p-id="3404"></path><path d="M840.759247 323.337315v423.133417h-614.571309v-423.133417z" fill="#FFFFFF" p-id="3405"></path><path d="M448.401506 794.445839h170.45253v53.105813h-170.45253z" fill="#C9E6F8" p-id="3406"></path><path d="M746.479297 882.670013H320.347972c0-9.421999 3.854454-18.415726 10.278544-24.839816s14.989544-10.278545 24.839816-10.278545h356.75115c18.843998 0.428273 34.261815 15.84609 34.261815 35.118361z" fill="#6F68E6" p-id="3407"></path><path d="M555.469678 553.756587C539.623588 521.207863 507.074864 501.079046 471.099958 501.079046H418.422417c-2.997909-12.419908-10.278545-23.554998-20.557089-31.263906-4.282727-2.997909-6.42409-7.708908-5.995817-12.848181 0.428273-7.280636 6.42409-13.276453 13.704726-13.704726 4.282727-0.428273 8.137181 1.284818 11.13509 3.854455 2.997909 2.997909 4.711 6.852363 4.710999 10.706817h26.98118c0-11.563363-4.711-22.698453-13.276454-30.835634-8.565454-8.137181-19.700544-11.991635-31.263906-11.13509-20.985362 1.284818-38.116269 17.987453-39.401087 39.401088-0.856545 14.132999 5.567545 27.837725 16.702634 36.403178 3.426182 2.569636 5.995818 5.995818 8.137182 9.850272h-47.109996c-35.974906 0-68.52363 20.128816-84.36972 52.249268-5.995818 11.991635-5.139272 25.696361 1.713091 36.831451 6.852363 11.13509 18.843998 17.987453 32.120451 17.987453h229.554162c13.276453 0 25.268089-6.852363 32.120452-17.987453 7.280636-11.13509 8.137181-24.839816 2.141363-36.831451z m-24.839816 22.27018c-0.856545 1.713091-3.854454 5.139272-9.421999 5.139272H292.081974c-5.567545 0-8.137181-3.426182-9.421999-5.139272-0.856545-1.713091-2.997909-5.567545-0.428273-10.706817 11.13509-23.126725 34.261815-37.259724 59.958177-37.259724H471.099958c25.696361 0 48.823087 14.132999 59.958177 37.259724 2.569636 5.139272 0.428273 9.421999-0.428273 10.706817z" fill="#E0E0E0" p-id="3408"></path><path d="M312.21079 567.889586H501.079046v148.18235H312.21079z" fill="#FF5252" p-id="3409"></path><path d="M605.14931 619.282309H800.869929v52.249268h-195.720619zM605.14931 546.047679H800.869929v52.249268h-195.720619zM605.14931 473.241322H800.869929v52.249268h-195.720619z" fill="#E4E4E4" p-id="3410"></path><path d="M897.659557 402.576328c-33.40527 11.563363-71.093266 4.711-98.930992-19.272271l-15.846089-129.766625-13.704726-112.207445h77.089084c23.554998 0 43.683814 16.702635 47.966541 39.829361l13.276454 72.378084 18.415725 100.644082c3.854454 20.985362-8.137181 41.542451-28.265997 48.394814z" fill="#E2E0FF" p-id="3411"></path><path d="M798.728565 383.304057c-38.116269 33.40527-94.648264 33.40527-132.764533 0l-7.708909-129.766625-6.852363-112.207445h117.77499l13.704726 112.207445 15.846089 129.766625z" fill="#A6A2F0" p-id="3412"></path><path d="M665.964032 383.304057c-38.116269 33.40527-94.648264 33.40527-132.764534 0V141.329987H650.974488l6.852363 112.207445 8.137181 129.766625z" fill="#E2E0FF" p-id="3413"></path><path d="M533.627771 141.329987v241.97407c-38.116269 33.40527-94.648264 33.40527-132.764534 0l8.137181-129.766625L415.424509 141.329987h118.203262z" fill="#A6A2F0" p-id="3414"></path><path d="M408.572146 253.537432l-8.137182 129.766625c-38.116269 33.40527-94.648264 33.40527-132.764533 0l15.846089-129.766625L297.649519 141.329987H415.424509l-6.852363 112.207445z" fill="#E2E0FF" p-id="3415"></path><path d="M297.649519 141.329987l-13.704726 112.207445-15.84609 129.766625c-27.837725 24.411543-65.953994 30.835634-98.930991 19.272271-20.128816-6.852363-32.120452-27.837725-28.265997-48.394814l18.415725-100.644082 13.276454-72.378084c4.282727-23.126725 24.411543-39.82936 47.966541-39.829361h77.089084z" fill="#A6A2F0" p-id="3416"></path><path d="M312.21079 567.889586H501.079046v26.981179H312.21079z" fill="#F25757" p-id="3417"></path></svg> -->
<!-- <svg t="1682138830207" class="icon" viewBox="0 0 1102 1024" version="1.1" xmlns="http://www.w3.org/2000/svg" p-id="2901" width="200" height="200"><path d="M897.969231 886.626462H250.092308c-12.996923 0-23.552-10.633846-23.552-23.552V287.507692c0-12.996923 10.633846-23.552 23.552-23.552H897.969231c12.996923 0 23.552 10.633846 23.552 23.552v575.56677c0.078769 12.996923-10.555077 23.552-23.552 23.552z" fill="#7FE5D1" p-id="2902"></path><path d="M897.969231 886.626462H250.092308c-12.996923 0-23.552-10.633846-23.552-23.552V287.507692c0-12.996923 10.633846-23.552 23.552-23.552H897.969231c12.996923 0 23.552 10.633846 23.552 23.552v575.56677c0.078769 12.996923-10.555077 23.552-23.552 23.552z" fill="#7FE5D1" p-id="2903"></path><path d="M897.969231 886.626462H250.092308c-12.996923 0-23.552-10.633846-23.552-23.552V287.507692c0-12.996923 10.633846-23.552 23.552-23.552H897.969231c12.996923 0 23.552 10.633846 23.552 23.552v575.56677c0.078769 12.996923-10.555077 23.552-23.552 23.552z" fill="#7FE5D1" p-id="2904"></path><path d="M824.162462 815.734154H323.899077c-10.003692 0-18.195692-8.192-18.195692-18.195692V353.043692c0-10.003692 8.192-18.195692 18.195692-18.195692h500.342154c10.003692 0 18.195692 8.192 18.195692 18.195692v444.49477c-0.078769 10.003692-8.192 18.195692-18.274461 18.195692z" fill="#FF8D8D" p-id="2905"></path><path d="M824.162462 821.563077H323.899077c-13.233231 0-24.024615-10.791385-24.024615-24.024615V353.043692c0-13.233231 10.791385-24.024615 24.024615-24.024615h500.342154c13.233231 0 24.024615 10.791385 24.024615 24.024615v444.49477c0 13.233231-10.791385 24.024615-24.103384 24.024615zM323.899077 340.676923c-6.774154 0-12.366769 5.513846-12.366769 12.366769v444.49477c0 6.774154 5.513846 12.366769 12.366769 12.366769h500.342154c6.774154 0 12.366769-5.513846 12.366769-12.366769V353.043692c0-6.774154-5.513846-12.366769-12.366769-12.366769H323.899077z" fill="#3B526B" p-id="2906"></path><path d="M573.833846 863.625846h-11.736615c-3.229538 0-5.828923-2.599385-5.828923-5.828923s2.599385-5.828923 5.828923-5.828923h11.736615c3.229538 0 5.828923 2.599385 5.828923 5.828923s-2.599385 5.828923-5.828923 5.828923zM539.490462 863.625846h-22.60677c-3.229538 0-5.828923-2.599385-5.828923-5.828923s2.599385-5.828923 5.828923-5.828923h22.60677c3.229538 0 5.828923 2.599385 5.828923 5.828923s-2.599385 5.828923-5.828923 5.828923z m-45.213539 0h-22.606769c-3.229538 0-5.828923-2.599385-5.828923-5.828923s2.599385-5.828923 5.828923-5.828923h22.606769c3.229538 0 5.828923 2.599385 5.828923 5.828923s-2.599385 5.828923-5.828923 5.828923z m-45.213538 0h-22.60677c-3.229538 0-5.828923-2.599385-5.828923-5.828923s2.599385-5.828923 5.828923-5.828923h22.60677c3.229538 0 5.828923 2.599385 5.828923 5.828923s-2.599385 5.828923-5.828923 5.828923z m-45.292308 0h-22.606769c-3.229538 0-5.828923-2.599385-5.828923-5.828923s2.599385-5.828923 5.828923-5.828923h22.606769c3.229538 0 5.828923 2.599385 5.828923 5.828923s-2.599385 5.828923-5.828923 5.828923z m-45.213539 0h-22.606769c-3.229538 0-5.828923-2.599385-5.828923-5.828923s2.599385-5.828923 5.828923-5.828923h22.606769c3.229538 0 5.828923 2.599385 5.828924 5.828923s-2.599385 5.828923-5.828924 5.828923z m-45.292307 0H290.658462c-3.229538 0-5.828923-2.599385-5.828924-5.828923s2.599385-5.828923 5.828924-5.828923h22.606769c3.229538 0 5.828923 2.599385 5.828923 5.828923s-2.599385 5.828923-5.828923 5.828923z m-44.662154-3.544615c-0.945231 0-1.890462-0.236308-2.835692-0.708923-1.339077-0.708923-2.599385-1.575385-3.780923-2.441846-6.065231-4.568615-9.531077-11.106462-9.531077-17.801847v-3.465846c0-3.229538 2.599385-5.828923 5.828923-5.828923s5.828923 2.599385 5.828923 5.828923v3.465846c0 3.072 1.732923 6.065231 4.883692 8.507077 0.708923 0.551385 1.496615 1.024 2.284308 1.496616 2.835692 1.575385 3.859692 5.12 2.363077 7.955692-0.945231 1.890462-2.914462 2.993231-5.041231 2.993231z m-10.24-41.117539c-3.229538 0-5.828923-2.599385-5.828923-5.828923v-22.606769c0-3.229538 2.599385-5.828923 5.828923-5.828923s5.828923 2.599385 5.828923 5.828923v22.606769c0.078769 3.150769-2.599385 5.828923-5.828923 5.828923z m0-45.292307c-3.229538 0-5.828923-2.599385-5.828923-5.828923v-22.60677c0-3.229538 2.599385-5.828923 5.828923-5.828923s5.828923 2.599385 5.828923 5.828923v22.60677c0.078769 3.229538-2.599385 5.828923-5.828923 5.828923z m0-45.213539c-3.229538 0-5.828923-2.599385-5.828923-5.828923v-22.606769c0-3.229538 2.599385-5.828923 5.828923-5.828923s5.828923 2.599385 5.828923 5.828923v22.606769c0.078769 3.150769-2.599385 5.828923-5.828923 5.828923z m0-45.292308c-3.229538 0-5.828923-2.599385-5.828923-5.828923v-22.606769c0-3.229538 2.599385-5.828923 5.828923-5.828923s5.828923 2.599385 5.828923 5.828923v22.606769c0.078769 3.229538-2.599385 5.828923-5.828923 5.828923z m0-45.213538c-3.229538 0-5.828923-2.599385-5.828923-5.828923v-22.606769c0-3.229538 2.599385-5.828923 5.828923-5.828923s5.828923 2.599385 5.828923 5.828923v22.606769c0.078769 3.229538-2.599385 5.828923-5.828923 5.828923zM258.363077 592.659692c-3.229538 0-5.828923-2.599385-5.828923-5.828923v-11.736615c0-3.229538 2.599385-5.828923 5.828923-5.828923s5.828923 2.599385 5.828923 5.828923V586.830769c0.078769 3.229538-2.599385 5.828923-5.828923 5.828923zM585.728 296.014769h-11.736615c-3.229538 0-5.828923-2.599385-5.828923-5.828923s2.599385-5.828923 5.828923-5.828923h11.736615c3.229538 0 5.828923 2.599385 5.828923 5.828923s-2.599385 5.828923-5.828923 5.828923zM889.540923 632.516923c-3.229538 0-5.828923-2.599385-5.828923-5.828923v-24.182154c0-3.229538 2.599385-5.828923 5.828923-5.828923s5.828923 2.599385 5.828923 5.828923v24.182154c0 3.150769-2.599385 5.828923-5.828923 5.828923z m0-48.443077c-3.229538 0-5.828923-2.599385-5.828923-5.828923v-24.182154c0-3.229538 2.599385-5.828923 5.828923-5.828923s5.828923 2.599385 5.828923 5.828923V578.166154c0 3.229538-2.599385 5.907692-5.828923 5.907692z m0-48.443077c-3.229538 0-5.828923-2.599385-5.828923-5.828923v-24.182154c0-3.229538 2.599385-5.828923 5.828923-5.828923s5.828923 2.599385 5.828923 5.828923v24.182154c0 3.150769-2.599385 5.828923-5.828923 5.828923z m0-48.443077c-3.229538 0-5.828923-2.599385-5.828923-5.828923v-24.182154c0-3.229538 2.599385-5.828923 5.828923-5.828923s5.828923 2.599385 5.828923 5.828923V481.28c0 3.229538-2.599385 5.907692-5.828923 5.907692z m0-48.443077c-3.229538 0-5.828923-2.599385-5.828923-5.828923v-24.182154c0-3.229538 2.599385-5.828923 5.828923-5.828923s5.828923 2.599385 5.828923 5.828923v24.182154c0 3.150769-2.599385 5.828923-5.828923 5.828923z m0-48.443077c-3.229538 0-5.828923-2.599385-5.828923-5.828923v-24.182153c0-3.229538 2.599385-5.828923 5.828923-5.828924s5.828923 2.599385 5.828923 5.828924V384.393846c0 3.308308-2.599385 5.907692-5.828923 5.907692z m0-48.443076c-3.229538 0-5.828923-2.599385-5.828923-5.828924v-21.267692c0-0.708923-0.078769-1.496615-0.157538-2.205538-0.393846-3.229538 1.890462-6.144 5.12-6.537846 3.229538-0.393846 6.144 1.890462 6.537846 5.12 0.157538 1.181538 0.236308 2.363077 0.236307 3.623384v21.267692c-0.078769 3.229538-2.678154 5.828923-5.907692 5.828924z m-13.548308-43.244308c-0.866462 0-1.811692-0.236308-2.678153-0.630154-2.599385-1.339077-5.435077-1.969231-8.349539-1.969231h-12.760615c-3.229538 0-5.828923-2.599385-5.828923-5.828923s2.599385-5.828923 5.828923-5.828923h12.760615c4.726154 0 9.452308 1.102769 13.627077 3.229539 2.914462 1.496615 4.017231 4.962462 2.599385 7.876923-1.024 1.969231-3.072 3.150769-5.19877 3.150769z m-48.04923-2.599385h-24.182154c-3.229538 0-5.828923-2.599385-5.828923-5.828923s2.599385-5.828923 5.828923-5.828923h24.182154c3.229538 0 5.828923 2.599385 5.828923 5.828923s-2.599385 5.828923-5.828923 5.828923z m-48.443077 0h-24.182154c-3.229538 0-5.828923-2.599385-5.828923-5.828923s2.599385-5.828923 5.828923-5.828923h24.182154c3.229538 0 5.828923 2.599385 5.828923 5.828923s-2.599385 5.828923-5.828923 5.828923z m-48.443077 0h-24.182154c-3.229538 0-5.828923-2.599385-5.828923-5.828923s2.599385-5.828923 5.828923-5.828923h24.182154c3.229538 0 5.828923 2.599385 5.828923 5.828923s-2.599385 5.828923-5.828923 5.828923z m-48.443077 0h-24.182154c-3.229538 0-5.828923-2.599385-5.828923-5.828923s2.599385-5.828923 5.828923-5.828923h24.182154c3.229538 0 5.828923 2.599385 5.828923 5.828923s-2.599385 5.828923-5.828923 5.828923z m-48.443077 0h-24.182154c-3.229538 0-5.828923-2.599385-5.828923-5.828923s2.599385-5.828923 5.828923-5.828923h24.182154c3.229538 0 5.828923 2.599385 5.828923 5.828923s-2.599385 5.828923-5.828923 5.828923zM889.540923 668.435692c-3.229538 0-5.828923-2.599385-5.828923-5.828923v-11.736615c0-3.229538 2.599385-5.828923 5.828923-5.828923s5.828923 2.599385 5.828923 5.828923v11.736615c0 3.229538-2.599385 5.828923-5.828923 5.828923z" fill="#D6FFF8" p-id="2907"></path><path d="M181.169231 342.882462c-3.229538 0-5.828923-2.599385-5.828923-5.828924v-24.260923c0-3.229538 2.599385-5.828923 5.828923-5.828923 3.229538 0 5.828923 2.599385 5.828923 5.828923v24.260923c0.078769 3.229538-2.520615 5.828923-5.828923 5.828924zM181.169231 373.838769c-3.229538 0-5.828923-2.599385-5.828923-5.828923v-10.003692c0-3.229538 2.599385-5.828923 5.828923-5.828923 3.229538 0 5.828923 2.599385 5.828923 5.828923v10.003692c0.078769 3.150769-2.520615 5.828923-5.828923 5.828923zM181.169231 396.130462c-3.229538 0-5.828923-2.599385-5.828923-5.828924v-1.339076c0-3.229538 2.599385-5.828923 5.828923-5.828924 3.229538 0 5.828923 2.599385 5.828923 5.828924v1.339076c0.078769 3.150769-2.520615 5.828923-5.828923 5.828924zM743.739077 892.534154H206.139077c-16.935385 0-30.72-13.784615-30.72-30.72V410.939077c0-3.229538 2.599385-5.828923 5.828923-5.828923 3.229538 0 5.828923 2.599385 5.828923 5.828923V861.735385c0 10.476308 8.507077 19.062154 19.062154 19.062153h537.6c3.229538 0 5.828923 2.599385 5.828923 5.828924s-2.599385 5.907692-5.828923 5.907692zM763.273846 892.534154h-1.024c-3.229538 0-5.828923-2.599385-5.828923-5.828923s2.599385-5.828923 5.828923-5.828923h1.024c3.229538 0 5.828923 2.599385 5.828923 5.828923s-2.599385 5.828923-5.828923 5.828923zM794.781538 892.534154h-11.736615c-3.229538 0-5.828923-2.599385-5.828923-5.828923s2.599385-5.828923 5.828923-5.828923h11.736615c3.229538 0 5.828923 2.599385 5.828924 5.828923s-2.599385 5.828923-5.828924 5.828923z" fill="#3B526B" p-id="2908"></path><path d="M832.118154 892.534154H815.261538c-3.229538 0-5.828923-2.599385-5.828923-5.828923s2.599385-5.828923 5.828923-5.828923h16.856616c3.229538 0 5.828923 2.599385 5.828923 5.828923s-2.599385 5.828923-5.828923 5.828923z" fill="#3B526B" p-id="2909"></path><path d="M896.630154 892.534154h-35.997539c-3.229538 0-5.828923-2.599385-5.828923-5.828923s2.599385-5.828923 5.828923-5.828923h35.997539c10.476308 0 19.062154-8.507077 19.062154-19.062154V259.150769c0-10.476308-8.507077-19.062154-19.062154-19.062154H206.139077c-10.476308 0-19.062154 8.507077-19.062154 19.062154v31.035077c0 3.229538-2.599385 5.828923-5.828923 5.828923-3.229538 0-5.828923-2.599385-5.828923-5.828923V259.150769c0-16.935385 13.784615-30.72 30.72-30.72h690.569846c16.935385 0 30.72 13.784615 30.72 30.72v602.584616c0 17.014154-13.784615 30.798769-30.798769 30.798769z" fill="#3B526B" p-id="2910"></path><path d="M549.257846 126.739692L413.380923 234.180923h304.836923L582.340923 126.739692c-9.688615-7.719385-23.394462-7.719385-33.083077 0z" fill="#7FE5D1" p-id="2911"></path><path d="M728.457846 240.088615H374.311385c-2.520615 0-4.726154-1.575385-5.513847-3.938461s-0.078769-4.962462 1.890462-6.537846L528.541538 104.763077c13.469538-10.633846 32.216615-10.633846 45.686154 0l157.853539 124.849231c1.969231 1.575385 2.678154 4.174769 1.890461 6.537846-0.866462 2.363077-3.072 3.938462-5.513846 3.938461z m-337.289846-11.736615h320.354462L566.980923 113.979077c-9.137231-7.246769-21.976615-7.246769-31.113846 0L391.168 228.352z" fill="#3B526B" p-id="2912"></path><path d="M709.947077 503.808c-3.544615 0-6.931692 0.708923-10.082462 1.890462-20.243692-49.624615-68.923077-61.361231-125.794461-61.361231S468.519385 456.073846 448.196923 505.698462c-3.150769-1.181538-6.537846-1.890462-10.082461-1.890462-16.384 0-29.696 13.312-29.696 29.696 0 16.384 13.312 29.696 29.696 29.696h0.315076c3.229538 72.231385 62.621538 99.485538 135.561847 99.485538S706.402462 635.431385 709.553231 563.2h0.315077c16.384 0 29.696-13.312 29.696-29.696 0.078769-16.384-13.233231-29.696-29.617231-29.696z" fill="#FFFFFF" p-id="2913"></path><path d="M518.695385 520.034462m-16.856616 0a16.856615 16.856615 0 1 0 33.713231 0 16.856615 16.856615 0 1 0-33.713231 0Z" fill="#F2A8AA" p-id="2914"></path><path d="M614.872615 572.258462c0 14.651077-18.274462 26.545231-40.802461 26.54523-22.528 0-40.802462-11.894154-40.802462-26.54523h81.604923z" fill="#F2A8AA" p-id="2915"></path><path d="M620.937846 520.900923m-16.856615 0a16.856615 16.856615 0 1 0 33.713231 0 16.856615 16.856615 0 1 0-33.713231 0Z" fill="#F2A8AA" p-id="2916"></path><path d="M574.070154 737.122462c-20.795077 0-38.518154-12.366769-44.189539-29.853539-4.962462 1.575385-10.003692 2.441846-15.202461 2.441846-22.921846 0-35.524923-14.808615-35.524923-41.590154 0-3.229538 2.599385-5.828923 5.828923-5.828923 3.229538 0 5.828923 2.599385 5.828923 5.828923 0 29.932308 17.880615 29.932308 23.788308 29.932308 5.750154 0 11.421538-1.339077 16.856615-4.017231 1.732923-0.866462 3.702154-0.787692 5.356308 0.07877 1.654154 0.866462 2.756923 2.599385 2.99323 4.411076 1.811692 15.281231 16.541538 26.781538 34.185847 26.781539s32.295385-11.500308 34.185846-26.781539c0.236308-1.890462 1.339077-3.544615 2.993231-4.411076 1.654154-0.866462 3.702154-0.945231 5.356307-0.07877 5.435077 2.678154 11.106462 4.017231 16.856616 4.017231 5.907692 0 23.788308 0 23.788307-29.932308 0-3.229538 2.599385-5.828923 5.828923-5.828923 3.229538 0 5.828923 2.599385 5.828923 5.828923 0 26.860308-12.603077 41.590154-35.524923 41.590154-5.198769 0-10.24-0.787692-15.202461-2.441846-5.513846 17.486769-23.315692 29.853538-44.032 29.853539zM525.784615 474.505846c-0.315077 0-0.630154 0-0.866461-0.078769-3.229538-0.472615-5.356308-3.465846-4.883692-6.695385 0.236308-1.339077 5.198769-32.216615 25.206153-46.867692 8.743385-6.380308 18.983385-8.743385 30.404923-6.931692 3.229538 0.472615 5.356308 3.544615 4.883693 6.695384-0.472615 3.229538-3.544615 5.356308-6.695385 4.883693-8.270769-1.339077-15.36 0.236308-21.582769 4.804923-16.068923 11.736615-20.558769 38.912-20.558769 39.227077-0.630154 2.914462-3.072 4.962462-5.907693 4.962461z" fill="#FFFFFF" p-id="2917"></path><path d="M559.655385 474.899692c-0.315077 0-0.630154 0-0.866462-0.078769-3.229538-0.472615-5.356308-3.465846-4.883692-6.695385 0.236308-1.339077 5.198769-32.216615 25.206154-46.867692 8.743385-6.380308 18.983385-8.743385 30.404923-6.931692 3.229538 0.472615 5.356308 3.544615 4.883692 6.695384-0.472615 3.229538-3.544615 5.356308-6.695385 4.883693-8.270769-1.339077-15.36 0.236308-21.582769 4.804923-16.068923 11.736615-20.48 38.912-20.558769 39.227077-0.630154 2.914462-3.072 4.962462-5.907692 4.962461z" fill="#FFFFFF" p-id="2918"></path><path d="M590.454154 474.899692c-0.315077 0-0.630154 0-0.866462-0.078769-3.229538-0.472615-5.356308-3.465846-4.883692-6.695385 0.236308-1.339077 5.198769-32.216615 25.206154-46.867692 8.743385-6.380308 18.983385-8.743385 30.404923-6.931692 3.229538 0.472615 5.356308 3.544615 4.883692 6.695384-0.472615 3.229538-3.544615 5.356308-6.695384 4.883693-8.270769-1.339077-15.36 0.236308-21.58277 4.804923-16.068923 11.736615-20.558769 38.912-20.558769 39.227077-0.630154 2.914462-3.072 4.962462-5.907692 4.962461z" fill="#FFFFFF" p-id="2919"></path></svg> -->
<svg t="1682138869782" class="icon" viewBox="0 0 1024 1024" version="1.1" xmlns="http://www.w3.org/2000/svg" p-id="3062" width="200" height="200"><path d="M147.721489 147.636204h737.157189v505.157441h-737.157189z" fill="#EBEBFF" p-id="3063"></path><path d="M147.721489 147.636204h737.157189v35.424498h-737.157189z" fill="#FFFFFF" p-id="3064"></path><path d="M532.476589 592.592474h-3.890552a71.463294 71.463294 0 0 1-67.572743-43.410368c-15.562207-38.905518 2.457191-91.939883 47.30092-138.421739 54.672492-56.515385 68.596572-96.854264 63.272659-115.487959 0-3.071488-3.48102-12.490719-22.114716-17.405101-57.539214-15.357441-154.188712 81.906354-184.289297 117.945151A20.476589 20.476589 0 0 1 334.058445 368.578595c13.309783-15.971739 132.89306-156.236371 225.242475-131.254933a65.729849 65.729849 0 0 1 50.986705 46.072324c11.057358 39.519816-15.152676 94.601839-73.306187 154.80301-37.472157 38.905518-46.481856 75.558612-38.905518 94.601839a31.329181 31.329181 0 0 0 31.124414 17.609867H532.476589c65.115552 0 146.407608-104.430602 172.412876-144.974248a20.476589 20.476589 0 0 1 34.400668 22.114716c-11.057358 18.019398-108.116388 165.041304-206.813544 165.041304z" fill="#5CBDFF" p-id="3065"></path><path d="M269.761957 348.102006a20.476589 20.476589 0 0 1-16.381271-32.557776 456.013628 456.013628 0 0 1 112.00694-99.720986 20.476589 20.476589 0 1 1 22.319481 34.400669A425.093979 425.093979 0 0 0 286.757525 339.297073a20.476589 20.476589 0 0 1-16.995568 8.804933z" fill="#FF457A" p-id="3066"></path><path d="M911.293478 636.821905H901.055183V143.33612a20.476589 20.476589 0 0 0-20.476588-20.476588H542.714883V81.906354a30.714883 30.714883 0 0 0-61.429766 0v40.953178H143.421405a20.476589 20.476589 0 0 0-20.476588 20.476588v493.485785h-10.238295a30.714883 30.714883 0 0 0 0 61.429766h130.43587l-61.429766 288.310368A30.714883 30.714883 0 0 0 204.851171 1023.82943a31.533946 31.533946 0 0 0 6.552508 0 30.714883 30.714883 0 0 0 29.89582-24.162375l40.953177-188.179849h460.108946l40.953177 188.179849A30.714883 30.714883 0 0 0 812.801087 1023.82943a31.533946 31.533946 0 0 0 6.347742 0 30.714883 30.714883 0 0 0 23.548077-36.448328l-61.429766-288.310367h130.026338a30.714883 30.714883 0 0 0 0-61.429766zM163.897994 163.812709h696.204012v470.961538H163.897994z m569.658695 606.72132H290.443311l15.562208-72.282358h411.988962z" fill="#37348F" p-id="3067"></path><path d="M714.103929 293.019983m-24.36714 0a24.36714 24.36714 0 1 0 48.734281 0 24.36714 24.36714 0 1 0-48.734281 0Z" fill="#F4D240" p-id="3068"></path><path d="M306.005519 436.356103m-22.93378 0a22.933779 22.933779 0 1 0 45.867559 0 22.933779 22.933779 0 1 0-45.867559 0Z" fill="#47E289" p-id="3069"></path></svg>
